<svg xmlns="http://www.w3.org/2000/svg" width="24" height="24" viewBox="0 0 48 48" fill="currentColor">
  <path d="M25.86 9.58008H14.7C6.5 9.58008 4 12.0801 4 20.2801V27.7201C4 35.9201 6.5 38.4201 14.7 38.4201H25.86C34.06 38.4201 36.56 35.9201 36.56 27.7201V20.2801C36.56 12.0801 34.06 9.58008 25.86 9.58008Z" fill="currentColor"/>
  <path d="M40.8399 18C40.5599 17.98 40.1999 17.96 39.7999 17.96C39.0199 17.96 38.3999 18.58 38.3999 19.36V28.66C38.3999 29.44 39.0199 30.06 39.7999 30.06C40.1999 30.06 40.5399 30.04 40.8799 30.02C43.9999 29.66 43.9999 27.46 43.9999 25.86V22.14C43.9999 20.54 43.9999 18.34 40.8399 18Z" fill="currentColor"/>
</svg>