<svg width="48" height="48" viewBox="0 0 48 48" fill="currentColor" xmlns="http://www.w3.org/2000/svg">
<path d="M41 20.38H35.22C30.48 20.38 26.62 16.52 26.62 11.78V6C26.62 4.9 25.72 4 24.62 4H16.14C9.98 4 5 8 5 15.14V32.86C5 40 9.98 44 16.14 44H31.86C38.02 44 43 40 43 32.86V22.38C43 21.28 42.1 20.38 41 20.38Z" fill="currentColor"/>
<path d="M31.5994 4.41999C30.7794 3.59999 29.3594 4.15999 29.3594 5.29999V12.28C29.3594 15.2 31.8394 17.62 34.8594 17.62C36.7594 17.64 39.3994 17.64 41.6594 17.64C42.7994 17.64 43.3994 16.3 42.5994 15.5C39.7194 12.6 34.5594 7.37999 31.5994 4.41999Z" fill="currentColor"/>
</svg>
