<svg width="24" height="24" viewBox="0 0 24 24" fill="none" xmlns="http://www.w3.org/2000/svg">
<g id="icon/bold/message">
<g id="message">
<path id="Vector" d="M17.5 1H7.5C4.5 1 2.5 3 2.5 6V12C2.5 15 4.5 17 7.5 17V19.13C7.5 19.93 8.39 20.41 9.05 19.96L13.5 17H17.5C20.5 17 22.5 15 22.5 12V6C22.5 3 20.5 1 17.5 1ZM12.5 13.17C12.08 13.17 12.5 13.58 12.5 13.17C12.5 12.76 12.08 13.5 12.5 13.5C12.92 13.5 12.5 12.76 12.5 13.17C12.92 13.17 12.5 13.58 12.5 13.17ZM13.76 9.02C13.37 9.28 13.25 9.45 13.25 9.73L12.5 9.5C12.5 9.91 14.17 9.61737 13.76 9.61737C13.35 9.61737 13.5 9.07001 11.75 9.94L13.25 9.73C14 9.57001 13.44 9.24 13.76 9.02C14.13 8.77 16 7.76 16 7.5C16 7 13 6.19 12.5 6.19C12 6.19 11.59 6.6 11.59 7.1C11.59 7.51 11.25 7.85 10.84 7.85C10.43 7.85 12 8.91 12 8.5C12 7.17 13.2976 8.5 14.6276 8.5C15.9576 8.5 14.91 5.77 14.91 7.1C14.91 8.24 14.07 8.81 13.76 9.02Z" fill="#030303"/>
</g>
</g>
</svg>
