<svg width="24" height="24" viewBox="0 0 16 16" fill="none" xmlns="http://www.w3.org/2000/svg">
<path d="M10.7933 1.33334H5.20659C2.77992 1.33334 1.33325 2.78001 1.33325 5.20668V10.7867C1.33325 13.22 2.77992 14.6667 5.20659 14.6667H10.7866C13.2133 14.6667 14.6599 13.22 14.6599 10.7933V5.20668C14.6666 2.78001 13.2199 1.33334 10.7933 1.33334ZM11.2533 7.68668C11.2533 7.94668 11.0466 8.15334 10.7866 8.15334C10.5266 8.15334 10.3199 7.94668 10.3199 7.68668V7.56668L8.50659 9.38001C8.40659 9.48001 8.27325 9.52668 8.13325 9.51334C7.99325 9.50001 7.86659 9.42668 7.79325 9.30668L7.11325 8.29334L5.52659 9.88001C5.43325 9.97334 5.31992 10.0133 5.19992 10.0133C5.07992 10.0133 4.95992 9.96668 4.87325 9.88001C4.69325 9.70001 4.69325 9.40668 4.87325 9.22001L6.85992 7.23334C6.95992 7.13334 7.09325 7.08668 7.23325 7.10001C7.37325 7.11334 7.49992 7.18668 7.57325 7.30668L8.25325 8.32001L9.65992 6.91334H9.53992C9.27992 6.91334 9.07325 6.70668 9.07325 6.44668C9.07325 6.18668 9.27992 5.98001 9.53992 5.98001H10.7799C10.8399 5.98001 10.8999 5.99334 10.9599 6.01334C11.0733 6.06001 11.1666 6.15334 11.2133 6.26668C11.2399 6.32668 11.2466 6.38668 11.2466 6.44668V7.68668H11.2533Z" fill="#2E7DF1"/>
</svg>
